# xmcd
#
# Track frame offsets: 
#        150
#        12548
#        21772
#        34075
#        48163
#        58218
#        71217
#        83499
#        95543
#        106025
#        119652
#        133046
#
# Disc length: 1928 seconds
#
# Revision: 0
# Processed by: cddbd v1.5.2PL0 Copyright (c) Steve Scherf et al.
# Submitted via: ExactAudioCopyFreeDBPlugin 1.0
#
DISCID=a007860c
DTITLE=Johnny Paycheck - untitled best of
DYEAR=1900
DGENRE=Country
TTITLE0=Take This Job and Shove It
TTITLE1=Mr. Love Maker
TTITLE2=Don't Take Her She's All I've Got
TTITLE3=The Only Hell My Mama Ever Raised
TTITLE4=Motel Time Again
TTITLE5=Somebody Loves Me
TTITLE6=Song and Dance Man
TTITLE7=Keep On Lovin' me
TTITLE8=Jukebox Charlie
TTITLE9=Someone to Give My Love to
TTITLE10=Slide Off Your Satin Sheets
TTITLE11=Something About You
EXTD=
EXTT0=
EXTT1=
EXTT2=
EXTT3=
EXTT4=
EXTT5=
EXTT6=
EXTT7=
EXTT8=
EXTT9=
EXTT10=
EXTT11=
PLAYORDER=
